# AST/ASF file generated using VICON BodyLanguage
# -----------------------------------------------
:version 1.10
:name VICON
:units
  mass 1.0
  length 0.45
  angle deg
:documentation
   .ast/.asf automatically generated from VICON data using
   VICON BodyBuilder and BodyLanguage model FoxedUp or BRILLIANT.MOD
:root
   order TX TY TZ RX RY RZ
   axis XYZ
   position 0 0 0  
   orientation 0 0 0 
:bonedata
  begin
     id 1 
     name lhipjoint
     direction 0.573633 -0.743009 0.344793 
     length 2.46257 
     axis 0 0 0  XYZ
  end
  begin
     id 2 
     name lfemur
     direction 0.34202 -0.939693 0  
     length 7.3842  
     axis 0 0 20  XYZ
    dof rx ry rz
    limits (-160.0 20.0)
           (-70.0 70.0)
           (-60.0 70.0)
  end
  begin
     id 3 
     name ltibia
     direction 0.34202 -0.939693 0   
     length 7.50407   
     axis 0 0 20   XYZ
    dof rx
    limits (-10.0 170.0)
  end
  begin
     id 4 
     name lfoot
     direction 0.110749 -0.304281 0.946123   
     length 1.95925   
     axis -90 7.62852e-016 20   XYZ
    dof rx rz
    limits (-45.0 90.0)
           (-70.0 20.0)
  end
  begin
     id 5 
     name ltoes
     direction 1.53554e-011 -4.21843e-011 1   
     length 0.978318   
     axis -90 7.62852e-016 20   XYZ
    dof rx
    limits (-90.0 20.0)
  end
  begin
     id 6 
     name rhipjoint
     direction -0.488109 -0.791693 0.367385   
     length 2.31113  
     axis 0 0 0  XYZ 
  end
  begin
     id 7 
     name rfemur
     direction -0.34202 -0.939693 0   
     length 7.40965   
     axis 0 0 -20   XYZ
    dof rx ry rz
    limits (-160.0 20.0)
           (-70.0 70.0)
           (-70.0 60.0)
  end
  begin
     id 8 
     name rtibia
     direction -0.34202 -0.939693 0   
     length 7.55548   
     axis 0 0 -20   XYZ
    dof rx
    limits (-10.0 170.0)
 end
 begin
     id 9 
     name rfoot
     direction -0.127594 -0.350561 0.927808   
     length 2.07199  
     axis -90 -7.62852e-016 -20   XYZ
    dof rx rz
    limits (-45.0 90.0)
           (-20.0 70.0)
  end
  begin
     id 10 
     name rtoes
     direction -1.53542e-011 -4.21909e-011 1   
     length 1.02667   
     axis -90 -7.62852e-016 -20   XYZ
    dof rx
    limits (-90.0 20.0)
  end
  begin
     id 11 
     name lowerback
     direction -0.0103342 0.997298 -0.0727278   
     length 2.02836   
     axis 0 0 0   XYZ
    dof rx ry rz
    limits (-20.0 45.0)
           (-30.0 30.0)
           (-30.0 30.0)
  end
  begin
     id 12 
     name upperback
     direction 0.0171146 0.999786 -0.011606   
     length 2.03179   
     axis 0 0 0   XYZ
    dof rx ry rz
    limits (-20.0 45.0)
           (-30.0 30.0)
           (-30.0 30.0)
  end
  begin
     id 13 
     name thorax
     direction 0.0216927 0.999513 0.0224343   
     length 2.03882   
     axis 0 0 0   XYZ
    dof rx ry rz
    limits (-20.0 45.0)
           (-30.0 30.0)
           (-30.0 30.0)
  end
  begin
     id 14 
     name lowerneck
     direction 0.000989287 0.993907 0.110221   
     length 1.75428   
     axis 0 0 0   XYZ
    dof rx ry rz
    limits (-20.0 45.0)
           (-30.0 30.0)
           (-30.0 30.0)
  end
  begin
     id 15 
     name upperneck
     direction -0.0172474 0.994813 -0.100253   
     length 1.77058   
     axis 0 0 0   XYZ
    dof rx ry rz
    limits (-20.0 45.0)
           (-30.0 30.0)
           (-30.0 30.0)
  end
  begin
     id 16
     name head
     direction -0.00486455 0.99894 -0.0457663  
     length 1.77427  
     axis 0 0 0   XYZ
    dof rx ry rz
    limits (-20.0 45.0)
           (-30.0 30.0)
           (-30.0 30.0)
  end
  begin
     id 17 
     name lclavicle
     direction 0.927314 0.333734 -0.169441  
     length 3.97584  
     axis 0 0 0   XYZ
    dof ry rz
    limits (-20.0 10.0)
           (0.0 20.0)
  end
  begin
     id 18 
     name lhumerus
     direction 1 -4.48965e-011 -3.25313e-028   
     length 4.76468   
     axis 180 -30 -90   XYZ
    dof rx ry rz
    limits (-60.0 90.0)
           (-90.0 90.0)
           (-90.0 90.0)
  end
  begin
     id 19
     name lradius
     direction 1 -4.48969e-011 -2.8465e-028   
     length 3.52712   
     axis -180 -30 -90   XYZ
    dof rx
    limits (-10.0 170.0)
  end
  begin
     id 20
     name lwrist
     direction 1 -4.4896e-011 -7.78665e-028   
     length 1.76356   
     axis 1.91374e-015 90 90   XYZ
    dof ry
    limits (-180.0 0.0)
 end
  begin
     id 21 
     name lhand
     direction 1 -4.48959e-011 -1.55733e-027   
     length 0.859564   
     axis 9.9371e-016 90 90   XYZ
    dof rx rz
    limits (-90.0 90.0)
           (-45.0 45.0)
  end
  begin
     id 22 
     name lfingers
     direction 1 -4.48965e-011 -3.11466e-027   
     length 0.693002   
     axis 1.98742e-015 90 90   XYZ
    dof rx
    limits (0.0 90.0)
  end
  begin
     id 23
     name lthumb
     direction 0.707107 -6.34948e-011 0.707107   
     length 0.995017   
     axis -90 45 2.85299e-015   XYZ
    dof rx rz
    limits (-45.0 45.0)
           (-45.0 45.0)
  end
  begin
     id 24 
     name rclavicle
     direction -0.899388 0.348209 -0.264294   
     length 3.68366  
     axis 0 0 0   XYZ 
    dof ry rz
    limits (-10.0 20.0)
           (-20.0 0.0)
  end
  begin
     id 25 
     name rhumerus
     direction -1 -4.48965e-011 -3.01536e-027  
     length 4.90577   
     axis 180 30 90   XYZ
    dof rx ry rz
    limits (-90.0 60.0)
           (-90.0 90.0)
           (-90.0 90.0)
  end
  begin
     id 26 
     name rradius
     direction -1 -4.48966e-011 3.93291e-027   
     length 3.42692   
     axis -180 30 90   XYZ
    dof rx
    limits (-10.0 170.0)
  end
  begin
     id 27 
     name rwrist
     direction -1 -4.48969e-011 -7.78665e-028   
     length 1.71346   
     axis 1.91374e-015 -90 -90   XYZ
    dof ry
    limits (-180.0 0.0)
  end
  begin
     id 28
     name rhand
     direction -1 -4.48967e-011 -1.55733e-027   
     length 0.740957   
     axis 9.9371e-016 -90 -90   XYZ
    dof rx rz
    limits (-90.0 90.0)
           (-45.0 45.0)
  end
  begin
     id 29
     name rfingers
     direction -1 -4.48949e-011 -3.11466e-027   
     length 0.597378   
     axis 1.98742e-015 -90 -90   XYZ
    dof rx
    limits (0.0 90.0)
  end
  begin
     id 30
     name rthumb
     direction -0.707107 -6.34931e-011 0.707107   
     length 0.857719   
     axis -90 -45 -2.85299e-015   XYZ
    dof rx rz
    limits (-45.0 45.0)
           (-45.0 45.0)
  end
:hierarchy
  begin
    root lhipjoint rhipjoint lowerback
    lhipjoint lfemur
    lfemur ltibia
    ltibia lfoot
    lfoot ltoes
    rhipjoint rfemur
    rfemur rtibia
    rtibia rfoot
    rfoot rtoes
    lowerback upperback
    upperback thorax
    thorax lowerneck lclavicle rclavicle
    lowerneck upperneck
    upperneck head
    lclavicle lhumerus
    lhumerus lradius
    lradius lwrist
    lwrist lhand lthumb
    lhand lfingers
    rclavicle rhumerus
    rhumerus rradius
    rradius rwrist
    rwrist rhand rthumb
    rhand rfingers
  end

#!OML:ASF E:\I on waltz\AllaLogoMonkeySwing\Project 1\Capture day 1\Session 1\Subject1.ASF
:FULLY-SPECIFIED
:DEGREES
208
root 0.265113 17.193 -2.89574 2.97988 -0.225256 -0.00134026
lowerback 16.4422 0.831814 0.678409
upperback 1.25704 1.37357 1.80159
thorax -7.91165 0.671947 1.23095
lowerneck -12.9976 0.362221 -1.45195
upperneck 18.4032 1.15599 -1.6793
head 7.8307 0.287566 -0.191607
rclavicle 5.96354e-015 1.03368e-014
rhumerus -44.4422 -3.22792 -83.4918
rradius 53.7548
rwrist -3.93482
rhand -21.2526 -40.1477
rfingers 7.12502
rthumb 5.13045 -70.0656
lclavicle 5.96354e-015 1.03368e-014
lhumerus -51.3703 10.8526 92.29
lradius 63.2658
lwrist 11.7888
lhand -21.7717 -24.5118
lfingers 7.12502
lthumb 4.62926 5.41761
rfemur -12.0726 -1.35683 2.44336
rtibia 34.2266
rfoot -20.8929 -11.3823
rtoes -3.93116
lfemur -6.93679 1.97489 -2.361
ltibia 27.2708
lfoot -20.2045 6.01541
ltoes -35.1553
209
root 0.275805 17.1917 -2.78103 3.89752 -0.343397 -0.0167348
lowerback 16.4823 0.813559 0.387203
upperback 1.25953 1.30109 1.85813
thorax -7.93786 0.648005 1.47339
lowerneck -13.5283 0.521261 -1.39183
upperneck 17.975 1.38171 -1.77226
head 7.78544 0.391714 -0.207217
rclavicle -2.78299e-015 7.15625e-015
rhumerus -43.9417 -1.27319 -84.0451
rradius 56.2315
rwrist -3.78737
rhand -21.0766 -40.3015
rfingers 7.12502
rthumb 5.3004 -70.2152
lclavicle -2.78299e-015 7.15625e-015
lhumerus -51.1746 8.60284 93.5156
lradius 64.2909
lwrist 9.73517
lhand -21.9384 -25.8907
lfingers 7.12502
lthumb 4.46825 4.04212
rfemur -12.6248 -1.0024 2.51585
rtibia 34.1416
rfoot -21.2014 -11.7978
rtoes -3.60218
lfemur -7.48216 1.84976 -2.44773
ltibia 27.3291
lfoot -20.5654 6.41071
ltoes -34.9103
210
root 0.287392 17.1649 -2.67379 4.85045 -0.424547 0.36444
lowerback 16.6208 0.809802 -0.251626
upperback 1.24495 1.17142 1.75959
thorax -8.0379 0.606182 1.7598
lowerneck -14.034 0.680187 -1.16033
upperneck 17.4116 1.58355 -1.96661
head 7.69311 0.488052 -0.286641
rclavicle 2.5842e-015 -1.90833e-014
rhumerus -43.4401 0.174889 -84.3891
rradius 58.5807
rwrist -3.4952
rhand -20.6816 -40.1708
rfingers 7.12502
rthumb 5.68181 -70.0746
lclavicle 2.5842e-015 -1.90833e-014
lhumerus -50.977 6.43412 94.4077
lradius 65.2831
lwrist 7.73734
lhand -21.6131 -27.3647
lfingers 7.12502
lthumb 4.78238 2.56129
rfemur -13.5909 -1.05238 2.04651
rtibia 34.7833
rfoot -21.7724 -12.0132
rtoes -3.3808
lfemur -8.43742 1.88001 -2.98393
ltibia 28.0166
lfoot -21.2369 6.62891
ltoes -34.6861
211
root 0.298529 17.1062 -2.58012 5.68546 -0.415335 0.17429
lowerback 17.0646 0.720303 -0.307765
upperback 1.22258 1.04929 1.80181
thorax -8.30646 0.551103 1.86402
lowerneck -14.4976 0.868003 -0.899774
upperneck 16.7853 1.8089 -2.1448
head 7.5737 0.599724 -0.362609
rclavicle 1.98785e-016 8.74653e-015
rhumerus -42.8409 1.34952 -84.6795
rradius 60.4086
rwrist -4.01639
rhand -21.7427 -39.7379
rfingers 7.12502
rthumb 4.65726 -69.6667
lclavicle 1.98785e-016 8.74653e-015
lhumerus -50.789 4.38016 95.0405
lradius 66.2723
lwrist 6.35024
lhand -20.8105 -28.8097
lfingers 7.12502
lthumb 5.55727 1.09748
rfemur -14.7527 -1.24427 2.25966
rtibia 36.0359
rfoot -22.6675 -12.2587
rtoes -3.10035
lfemur -9.67571 2.22186 -2.75287
ltibia 29.4416
lfoot -22.1576 6.6197
ltoes -34.4133
212
root 0.304194 17.0206 -2.49846 6.71635 -0.31724 0.208849
lowerback 17.4621 0.637905 -0.65342
upperback 1.15191 0.878783 1.82725
thorax -8.60392 0.484757 2.12937
lowerneck -15.0618 1.02786 -0.77853
upperneck 16.1427 1.99805 -2.17872
head 7.46431 0.698209 -0.371394
rclavicle -5.76476e-015 -1.11319e-014
rhumerus -41.8613 2.00198 -84.6341
rradius 61.9415
rwrist -3.23213
rhand -20.3892 -40.3316
rfingers 7.12502
rthumb 5.96409 -70.2277
lclavicle -5.76476e-015 -1.11319e-014
lhumerus -50.6461 2.33569 95.588
lradius 67.4326
lwrist 5.68399
lhand -19.8352 -30.0729
lfingers 7.12502
lthumb 6.49892 -0.192608
rfemur -16.4155 -1.71819 2.22906
rtibia 37.8759
rfoot -23.7114 -12.6582
rtoes -2.81201
lfemur -11.5831 2.82386 -2.75485
ltibia 31.6135
lfoot -23.2405 6.52313
ltoes -34.0476
213
root 0.307987 16.9075 -2.42524 7.75094 -0.184098 0.260703
lowerback 17.972 0.554185 -0.985591
upperback 1.07703 0.704399 1.8366
thorax -8.96612 0.418011 2.37378
lowerneck -15.7536 1.12179 -0.636797
upperneck 15.5088 2.10362 -2.27125
head 7.38025 0.751192 -0.410864
rclavicle 4.17448e-015 1.27222e-014
rhumerus -40.752 2.55827 -84.6971
rradius 62.9488
rwrist -3.89129
rhand -21.4772 -40.4365
rfingers 7.12502
rthumb 4.91359 -70.3596
lclavicle 4.17448e-015 1.27222e-014
lhumerus -49.9576 0.418242 95.9188
lradius 68.1585
lwrist 5.43072
lhand -19.3013 -30.4928
lfingers 7.12502
lthumb 7.01432 -0.629044
rfemur -18.3251 -2.32412 2.20704
rtibia 40.1478
rfoot -24.732 -13.0916
rtoes -2.66821
lfemur -13.849 3.64032 -2.78662
ltibia 34.3874
lfoot -24.411 6.52856
ltoes -33.8752
214
root 0.313186 16.7671 -2.35421 8.80368 -0.199309 0.486365
lowerback 18.5214 0.550103 -1.47943
upperback 0.981116 0.590279 1.77716
thorax -9.37626 0.388021 2.62366
lowerneck -16.522 1.1808 -0.477507
upperneck 14.8632 2.16556 -2.41895
head 7.30553 0.778309 -0.475411
rclavicle 1.78906e-015 7.95139e-015
rhumerus -39.5459 2.792 -84.6459
rradius 63.6706
rwrist -4.36738
rhand -21.4429 -40.2159
rfingers 7.12502
rthumb 4.94675 -70.1381
lclavicle 1.78906e-015 7.95139e-015
lhumerus -49.3252 -1.43363 96.1271
lradius 69.0347
lwrist 5.64049
lhand -19.0747 -31.5342
lfingers 7.12502
lthumb 7.23305 -1.67786
rfemur -20.4676 -2.8619 1.96113
rtibia 42.7207
rfoot -25.8444 -13.4893
rtoes -2.40642
lfemur -16.3051 4.59446 -3.09838
ltibia 37.5766
lfoot -25.6519 6.77261
ltoes -33.8608
215
root 0.321262 16.5915 -2.28695 9.63045 -0.126379 -0.188999
lowerback 19.3422 0.479751 -1.07275
upperback 0.937905 0.601755 1.98077
thorax -9.88023 0.386492 2.61587
lowerneck -17.363 1.26532 -0.253835
upperneck 14.1533 2.24597 -2.59146
head 7.22255 0.81521 -0.556008
rclavicle -1.98785e-015 -1.55052e-014
rhumerus -38.2645 2.77494 -84.4857
rradius 64.2002
rwrist -4.53278
rhand -21.6286 -39.9243
rfingers 7.12502
rthumb 4.76742 -69.8507
lclavicle -1.98785e-015 -1.55052e-014
lhumerus -48.4917 -2.86932 96.2124
lradius 69.8378
lwrist 6.39496
lhand -19.1527 -31.2839
lfingers 7.12502
lthumb 7.15771 -1.42497
rfemur -22.4802 -3.09787 2.80923
rtibia 45.455
rfoot -27.1326 -14.2176
rtoes -2.81333
lfemur -18.618 5.71107 -2.28677
ltibia 40.9749
lfoot -26.9804 6.92372
ltoes -33.9584
216
root 0.32464 16.3924 -2.21985 10.639 -0.150481 -0.769112
lowerback 19.9359 0.481064 -0.920385
upperback 0.842059 0.659125 2.17564
thorax -10.3223 0.41727 2.73229
lowerneck -18.1064 1.37988 0.0551703
upperneck 13.2086 2.33437 -2.77681
head 7.04644 0.86231 -0.654075
rclavicle -4.96962e-015 -1.23246e-014
rhumerus -36.9 2.5375 -84.2867
rradius 64.5845
rwrist -4.57351
rhand -21.8857 -39.9196
rfingers 7.12502
rthumb 4.51913 -69.8514
lclavicle -4.96962e-015 -1.23246e-014
lhumerus -47.4314 -3.80865 96.1006
lradius 70.5273
lwrist 7.66204
lhand -19.2852 -31.8688
lfingers 7.12502
lthumb 7.02987 -2.00557
rfemur -24.8762 -3.10213 3.546
rtibia 48.4255
rfoot -28.4027 -15.1557
rtoes -3.80933
lfemur -21.1261 6.90129 -1.58403
ltibia 44.3721
lfoot -28.2217 7.19363
ltoes -34.7493
217
root 0.323034 16.1776 -2.14685 11.7773 -0.325008 -1.37208
lowerback 20.2133 0.58409 -0.906344
upperback 0.733966 0.821999 2.37655
thorax -10.6109 0.503198 2.90308
lowerneck -18.7328 1.50419 0.230642
upperneck 12.0646 2.42986 -2.79255
head 6.7815 0.924224 -0.67503
rclavicle 1.19271e-015 3.57812e-015
rhumerus -35.0851 2.18896 -84.0027
rradius 64.3968
rwrist -4.93912
rhand -20.7464 -40.0834
rfingers 7.12502
rthumb 5.6192 -69.9889
lclavicle 1.19271e-015 3.57812e-015
lhumerus -46.0071 -4.4258 95.7909
lradius 70.9173
lwrist 9.42538
lhand -19.5018 -32.946
lfingers 7.12502
lthumb 6.82072 -3.07589
rfemur -27.4587 -2.74897 4.27051
rtibia 51.4263
rfoot -29.5751 -16.0167
rtoes -4.48618
lfemur -23.6027 8.16753 -0.811248
ltibia 47.5872
lfoot -29.1317 7.97897
ltoes -38.0962
218
root 0.315185 15.964 -2.06153 12.9374 -0.540016 -1.92993
lowerback 20.2772 0.739813 -1.07
upperback 0.618033 1.01514 2.58974
thorax -10.7963 0.61224 3.17947
lowerneck -19.3521 1.64589 0.343508
upperneck 10.8834 2.55 -2.73093
head 6.50175 1.00171 -0.658587
rclavicle 8.34896e-015 2.50469e-014
rhumerus -32.7749 1.87436 -83.5819
rradius 63.5533
rwrist -5.87502
rhand -20.5598 -39.2305
rfingers 7.12502
rthumb 5.79935 -69.1312
lclavicle 8.34896e-015 2.50469e-014
lhumerus -43.9848 -4.87223 95.2691
lradius 70.6996
lwrist 11.9418
lhand -20.65 -33.1929
lfingers 7.12502
lthumb 5.71229 -3.28993
rfemur -29.8788 -2.3181 4.90072
rtibia 54.2085
rfoot -30.8702 -17.0122
rtoes -5.64922
lfemur -25.7768 9.37193 0.0107559
ltibia 50.4511
lfoot -30.2747 8.58002
ltoes -41.2211
